<svg width="95" height="98" viewBox="0 0 95 98" fill="none" xmlns="http://www.w3.org/2000/svg">
<circle cx="47.5489" cy="49.5479" r="46.3702" fill="white"/>
<path d="M47.3867 0.988281C73.5218 0.988281 94.709 22.6876 94.709 49.4551C94.709 76.2225 73.5218 97.9219 47.3867 97.9219C21.2519 97.9216 0.0654377 76.2224 0.0654297 49.4551C0.0654297 22.6878 21.2519 0.988516 47.3867 0.988281ZM78.3682 19.6221C69.1195 18.1244 45.3968 19.3457 24.4961 36.2119C14.6623 44.069 -3.04737 62.6171 10.792 72.1562C14.2352 74.6446 25.671 75.6257 35.5 68.2158C40.8559 64.7825 53.3631 54.7091 60.5459 41.8799C65.069 35.6356 74.7364 22.9127 77.2207 21.9727C82.0811 21.9735 84.9159 37.4561 69.5918 41.8799H64.124C60.5461 41.8799 57.9132 44.2996 64.124 43.6084C82.0456 41.6142 74.2603 67.9816 61.5586 70.3594C55.2803 71.5345 50.6223 71.4651 51.5674 67.7324C52.1749 66.5574 52.7469 65.7003 56.833 64.6904C58.7904 64.2059 59.33 59.0229 54.335 58.8154C50.9145 58.8846 45.6939 61.6497 46.4365 66.834C46.5267 68.1013 47.5341 70.2582 52.0566 71.373C65.269 74.6299 84.2452 64.9338 80.2578 49.4834C79.0426 46.1656 76.2478 44.2994 71.2793 42.917C73.9571 42.5253 81.6079 40.7738 85.5234 32.6865C86.6711 29.3916 86.8471 22.1659 78.3682 19.6221ZM20.2432 43.6084C39.5777 23.2583 64.3037 19.9213 74.25 20.7969C63.3946 28.1517 46.2791 49.8987 39.0781 59.8525C31.4631 71.0229 22.2002 74.2992 15.9219 72.502C4.44583 67.6631 13.6048 51.5115 20.2432 43.6084Z" fill="url(#paint0_radial_3004_306)"/>
<defs>
<radialGradient id="paint0_radial_3004_306" cx="0" cy="0" r="1" gradientUnits="userSpaceOnUse" gradientTransform="translate(76.3106 21.784) rotate(129.347) scale(86.272 90.0277)">
<stop offset="0.0001" stop-color="white"/>
<stop offset="0.0002" stop-color="#FEFFFF"/>
<stop offset="0.465" stop-color="#007DC2"/>
<stop offset="0.87" stop-color="#28166F"/>
</radialGradient>
</defs>
</svg>
