<svg width="386" height="110" viewBox="0 0 386 110" fill="none" xmlns="http://www.w3.org/2000/svg">
<path d="M133.359 15.209C134.626 15.209 137.239 15.4182 141.53 15.4182C145.821 15.4182 148.79 15.2787 153.303 15.2787C158.307 15.2787 165.844 16.8284 165.844 25.0027C165.844 28.9311 163.097 32.1776 159.083 33.7582C159.053 33.7681 159.027 33.7868 159.009 33.8118C158.99 33.8369 158.981 33.8669 158.981 33.8977C158.981 33.9285 158.99 33.9585 159.009 33.9835C159.027 34.0085 159.053 34.0273 159.083 34.0371C164.506 35.3466 169.019 38.5853 169.019 44.5902C169.019 50.3781 165.496 54.2445 160.065 56.5225C156.826 57.9636 152.812 58.382 148.98 58.382C145.734 58.382 137.104 58.0334 132.417 58.1031C131.997 57.9016 131.926 56.1041 132.346 55.8948C133.911 55.7955 135.466 55.5884 137.001 55.275C138.585 54.8643 139.115 54.3142 139.258 51.827C139.392 49.6885 139.464 43.0018 139.464 36.3306C139.464 28.0555 139.464 23.4298 139.392 20.8807C139.329 19.0211 138.601 18.3315 137.421 18.0526C136.368 17.7736 134.602 17.5722 133.264 17.363C133.003 17.0763 133.003 15.4182 133.359 15.209ZM146.399 18.1068C146.114 18.1765 145.829 18.8816 145.829 19.2071C145.695 21.3456 145.623 28.4507 145.623 33.1538C145.623 33.2933 145.829 33.5722 145.972 33.5722C146.819 33.642 148.648 33.642 150.627 33.642C153.794 33.642 155.275 33.2933 156.122 32.8672C158.307 31.6197 159.36 29.21 159.36 26.5214C159.36 20.5243 155.401 17.8976 148.862 17.8976C148.036 17.9039 147.213 17.9738 146.399 18.1068ZM162.179 46.1708C162.179 39.7631 157.531 36.2454 149.424 36.2454C148.296 36.1957 147.167 36.219 146.043 36.3151C145.829 36.3849 145.623 36.5166 145.623 36.656C145.623 41.0028 145.623 48.9292 145.829 51.6953C145.884 52.2579 146.064 52.8019 146.357 53.2891C146.65 53.7763 147.048 54.195 147.523 54.5157C148.79 55.2905 151.332 55.4842 153.018 55.4842C158.378 55.4842 162.179 52.5864 162.179 46.1708Z" fill="white" fill-opacity="0.89" stroke="white" stroke-width="0.827561"/>
<path d="M172.606 55.896C173.652 55.7226 174.689 55.4924 175.709 55.2064C176.055 55.0119 176.342 54.7306 176.539 54.3914C176.737 54.0522 176.839 53.6676 176.834 53.2771C177.119 51.2084 177.119 46.5207 177.119 35.1386C177.119 30.2495 177.119 20.8664 176.976 18.6581C176.905 17.9685 176.834 16.7288 175.852 16.4499C174.599 16.1534 173.327 15.9462 172.044 15.83C171.695 15.6286 171.758 14.1797 172.115 13.9705C175.792 13.5866 179.397 12.7052 182.827 11.3516C182.969 11.4372 183.092 11.5499 183.189 11.683C183.285 11.8162 183.353 11.9669 183.389 12.1264C182.898 13.3661 182.756 14.5361 182.756 17.6431C182.685 21.0911 182.685 28.9478 182.685 34.9526C182.685 45.7071 182.685 50.3328 182.827 52.1924C182.97 54.052 183.104 54.881 184.45 55.2917C185.405 55.6164 186.397 55.8246 187.403 55.9115C187.561 56.6647 187.438 57.4483 187.055 58.1198C185.717 58.1198 183.603 57.9183 179.652 57.9183C176.905 57.9183 173.453 58.1198 172.606 58.1198C172.325 57.404 172.325 56.6118 172.606 55.896Z" fill="white" fill-opacity="0.89" stroke="white" stroke-width="0.827561"/>
<path d="M189.732 30.8683C193.116 30.8117 196.489 30.4643 199.811 29.8301C199.526 31.7594 199.32 35.8272 199.32 43.3507C199.32 47.2248 199.383 49.2781 199.668 50.3783C200.23 52.5866 201.853 54.3144 205.448 54.3144C207.556 54.2914 209.585 53.5205 211.156 52.1449C211.402 51.9641 211.601 51.73 211.738 51.4612C211.876 51.1923 211.947 50.8959 211.948 50.5953C212.083 49.6965 212.083 45.3575 211.948 35.773C212.002 35.3463 211.904 34.9146 211.672 34.5495C211.441 34.1844 211.088 33.908 210.673 33.7662C209.187 33.4288 207.683 33.1701 206.168 32.9913C206.06 32.2629 206.181 31.5195 206.517 30.8606C210.341 30.8568 214.158 30.5562 217.934 29.9618C217.763 31.8424 217.692 33.7303 217.72 35.618L217.656 51.6878C217.656 53.2374 218.005 53.8883 218.995 53.958C220.05 54.0394 221.111 54.016 222.161 53.8883C222.233 54.3067 222.161 55.8253 221.813 56.1663C218.781 57.2939 215.672 58.2155 212.51 58.9246C212.368 58.9246 212.154 58.5837 212.083 58.3048C212.019 57.6152 211.948 55.5464 211.948 54.5081C211.948 54.3067 211.663 54.2369 211.52 54.3764C207.506 57.6152 204.395 58.7154 202.218 58.7154C195.242 58.7154 193.762 54.0665 193.762 49.4176C193.69 46.0393 193.904 38.7948 193.762 35.8969C193.69 34.7967 193.413 33.9676 192.495 33.6267C191.455 33.3489 190.397 33.1392 189.328 32.9991C189.196 32.2644 189.34 31.5079 189.732 30.8683V30.8683Z" fill="white" fill-opacity="0.89" stroke="white" stroke-width="0.827561"/>
<path d="M250.893 51.487C250.883 52.2184 250.741 52.9425 250.473 53.6255C247.542 56.6948 243.502 58.5239 239.214 58.7238C235.477 58.7238 232.659 57.6235 230.505 55.485C227.615 52.5872 226.349 48.3102 226.349 44.3121C226.349 38.1755 229.096 34.038 232.683 31.76C235.002 30.3089 237.682 29.5052 240.434 29.4355C247.338 29.4355 249.879 35.3629 250.441 39.4307C250.561 39.6309 250.724 39.8036 250.918 39.9372C251.112 40.0709 251.333 40.1624 251.566 40.2056C251.474 40.8389 251.259 41.4491 250.932 42.0031C247.908 42.778 238.391 43.3126 232.334 43.5528C232.049 43.5528 231.978 43.9712 231.978 44.3276C232.108 46.8743 233.157 49.2932 234.939 51.1538C235.924 52.1383 237.112 52.9059 238.424 53.4056C239.736 53.9053 241.142 54.1255 242.548 54.0516C245.49 54.0332 248.333 53.008 250.584 51.1538C250.698 51.2542 250.802 51.3659 250.893 51.487ZM231.938 40.1048C231.938 40.2443 232.152 40.5852 232.358 40.5852C234.733 40.655 242.936 40.4535 244.274 40.1746C244.488 40.0268 244.638 39.8055 244.693 39.5547C244.274 36.037 241.946 32.2481 238.138 32.2481C234.757 32.2481 232.358 35.3474 231.938 40.1048Z" fill="white" fill-opacity="0.89" stroke="white" stroke-width="0.827561"/>
<path d="M255.969 15.209C257.235 15.209 259.84 15.4182 264.139 15.4182C268.439 15.4182 271.4 15.2787 275.913 15.2787C280.916 15.2787 288.454 16.8284 288.454 25.0027C288.454 28.9311 285.706 32.1776 281.684 33.7582C281.655 33.7681 281.629 33.7868 281.61 33.8118C281.592 33.8369 281.582 33.8669 281.582 33.8977C281.582 33.9285 281.592 33.9585 281.61 33.9835C281.629 34.0085 281.655 34.0273 281.684 34.0371C287.116 35.3466 291.621 38.5853 291.621 44.5902C291.621 50.3781 288.097 54.2445 282.674 56.5225C279.436 57.9636 275.414 58.382 271.59 58.382C268.344 58.382 259.674 58.0334 255.026 58.1031C254.607 57.9016 254.536 56.1041 254.955 55.8948C256.52 55.7945 258.075 55.5874 259.611 55.275C261.155 54.8643 261.725 54.3142 261.859 51.827C262.002 49.6885 262.073 43.0018 262.073 36.3306C262.073 28.0555 262.073 23.4298 262.002 20.8807C261.93 19.0211 261.21 18.3315 260.03 18.0526C258.977 17.7736 257.212 17.5722 255.874 17.363C255.612 17.0763 255.612 15.4182 255.969 15.209ZM269.001 18.1068C268.724 18.1765 268.439 18.8816 268.439 19.2071C268.296 21.3456 268.225 28.4507 268.225 33.1538C268.225 33.2933 268.439 33.5722 268.581 33.5722C269.428 33.642 271.257 33.642 273.229 33.642C276.396 33.642 277.884 33.2933 278.771 32.8672C280.956 31.6197 282.009 29.21 282.009 26.5214C282.009 20.5243 278.05 17.8976 271.51 17.8976C270.67 17.9018 269.83 17.9718 269.001 18.1068V18.1068ZM284.788 46.1708C284.788 39.7631 280.14 36.2454 272.033 36.2454C270.906 36.1957 269.776 36.219 268.652 36.3151C268.439 36.3849 268.225 36.5166 268.225 36.656C268.225 41.0028 268.225 48.9292 268.439 51.6953C268.494 52.2579 268.674 52.8019 268.967 53.2891C269.259 53.7763 269.657 54.195 270.133 54.5157C271.4 55.2905 273.933 55.4842 275.628 55.4842C280.98 55.4842 284.788 52.5864 284.788 46.1708V46.1708Z" fill="white" fill-opacity="0.89" stroke="white" stroke-width="0.827561"/>
<path d="M293.386 30.1797C294.652 30.1797 297.542 30.3811 300.361 30.3811C303.464 30.3811 306.774 30.2494 307.827 30.1797C308.183 30.4509 308.254 32.0393 308.041 32.4499C307.138 32.5803 306.244 32.764 305.365 33C304.731 33.2092 304.731 33.9686 304.802 34.2475C306.141 38.5245 310.511 49.4882 311.002 50.3793C311.073 50.3793 311.279 50.449 311.279 50.3793C313.393 45.9705 316.497 38.3153 316.987 34.9371C317.055 34.7329 317.078 34.5169 317.052 34.3035C317.027 34.0902 316.956 33.8847 316.842 33.7009C316.729 33.5171 316.576 33.3594 316.395 33.2385C316.214 33.1175 316.008 33.0362 315.792 33C314.774 32.7367 313.736 32.5527 312.688 32.4499C312.508 31.6904 312.583 30.8941 312.902 30.1797C313.82 30.1797 316.568 30.3811 319.173 30.3811C321.777 30.3811 323.963 30.2494 326.013 30.1797C326.18 30.534 326.273 30.9177 326.285 31.3077C326.297 31.6977 326.229 32.0862 326.084 32.4499C325.172 32.5339 324.271 32.7184 323.4 33C322.134 33.4184 321.287 34.449 320.582 36.2465C316.026 48.0961 310.527 59.5779 304.137 70.5866C303.29 72.0355 302.554 73.4147 302.023 74.4607L301.453 74.7319C300.024 74.3315 298.682 73.6775 297.495 72.8026C297.423 72.3923 297.423 71.9732 297.495 71.5629C299.751 68.8743 305.175 62.1101 307.645 56.8413L307.011 55.6016C305.428 51.6732 302.499 44.2194 300.385 39.1909C298.484 34.6349 297.637 33.3952 295.523 32.8451C294.746 32.6363 293.951 32.4962 293.148 32.4267C292.958 32.0005 293.101 30.3811 293.386 30.1797Z" fill="white" fill-opacity="0.89" stroke="white" stroke-width="0.827561"/>
<path d="M338.342 34.038C338.199 34.038 338.057 34.317 338.057 34.3867C337.985 37.4163 337.985 43.0027 338.057 46.5204C337.961 48.2772 338.105 50.0386 338.484 51.7582C339.046 53.6255 340.946 54.4546 342.783 54.4546C344.343 54.5418 345.891 54.1548 347.217 53.3466C347.431 53.5558 347.146 55.4154 346.94 55.6711C345.246 57.8096 342.189 58.7006 339.814 58.7006C336.924 58.7006 334.668 57.5306 333.48 55.3224C332.491 53.6023 332.419 51.8047 332.419 47.396C332.419 43.4599 332.491 37.393 332.491 34.6347C332.492 34.5022 332.452 34.3725 332.377 34.2621C332.303 34.1517 332.196 34.0656 332.071 34.0148L328.112 33.7359C328.13 32.8645 328.373 32.0117 328.817 31.2564C329.942 31.0859 331.052 30.8268 332.134 30.4816C332.236 30.427 332.321 30.3477 332.382 30.2513C332.443 30.1549 332.478 30.0448 332.483 29.9315V23.9731C334.145 23.108 335.706 22.0688 337.138 20.8738C337.572 20.748 338.031 20.7241 338.476 20.8041C338.334 21.9741 338.12 25.1508 338.12 29.978C338.116 30.0279 338.121 30.0781 338.137 30.1258C338.153 30.1735 338.178 30.2177 338.211 30.2559C338.244 30.294 338.284 30.3254 338.33 30.3482C338.375 30.371 338.425 30.3847 338.476 30.3886C341.786 30.3886 346.156 30.2569 347.28 30.1174C347.074 31.0782 346.718 33.0075 346.576 34.1155C344.968 34.038 341.089 34.038 338.342 34.038Z" fill="white" fill-opacity="0.89" stroke="white" stroke-width="0.827561"/>
<path d="M374.983 51.487C374.97 52.2181 374.828 52.9416 374.563 53.6255C371.628 56.6984 367.582 58.5279 363.289 58.7238C359.552 58.7238 356.733 57.6235 354.579 55.485C351.69 52.5872 350.423 48.3102 350.423 44.3121C350.423 38.1755 353.17 34.038 356.757 31.76C359.076 30.3089 361.756 29.5052 364.508 29.4355C371.412 29.4355 373.953 35.3629 374.516 39.4307C374.636 39.6309 374.798 39.8036 374.992 39.9372C375.186 40.0709 375.407 40.1624 375.64 40.2056C375.548 40.8389 375.333 41.4491 375.006 42.0031C371.974 42.778 362.465 43.3126 356.401 43.5528C356.123 43.5528 356.052 43.9712 356.052 44.3276C356.182 46.8743 357.232 49.2932 359.013 51.1538C359.998 52.1387 361.186 52.9066 362.498 53.4063C363.81 53.906 365.216 54.126 366.622 54.0516C369.556 53.9967 372.378 52.9418 374.603 51.0686C374.745 51.1939 374.872 51.3342 374.983 51.487V51.487ZM356.028 40.1048C356.028 40.2443 356.242 40.5852 356.448 40.5852C358.823 40.655 367.018 40.4535 368.324 40.1746C368.543 40.0299 368.696 39.8077 368.752 39.5547C368.324 36.037 366.004 32.2481 362.196 32.2481C358.847 32.2481 356.448 35.3474 356.028 40.1048Z" fill="white" fill-opacity="0.89" stroke="white" stroke-width="0.827561"/>
<path d="M149.988 96.1393H146.651V87.3473H137.606V96.1393H134.27V77.8496H137.606V85.888H146.651V77.8496H149.988V96.1393Z" fill="white"/>
<path d="M177.087 94.8368C177.087 95.2196 176.842 95.5306 176.341 95.7699C175.736 96.04 175.074 96.167 174.41 96.1407H163.898C163.237 96.1669 162.58 96.0398 161.979 95.7699C161.49 95.5306 161.233 95.2196 161.233 94.8368V79.1549C161.233 78.7721 161.49 78.4611 161.979 78.2219C162.58 77.9519 163.237 77.8248 163.898 77.851H174.41C175.074 77.8248 175.736 77.9518 176.341 78.2219C176.842 78.4611 177.087 78.7721 177.087 79.1549V94.8368ZM173.762 94.6933V79.2865H164.57V94.6933H173.762Z" fill="white"/>
<path d="M202.976 94.8371C202.961 95.046 202.883 95.2459 202.753 95.4119C202.623 95.5778 202.445 95.7025 202.243 95.7702C201.646 96.0413 200.992 96.1685 200.336 96.141H190.887C190.223 96.1673 189.561 96.0402 188.956 95.7702C188.455 95.5309 188.198 95.2199 188.198 94.8371V90.1959H191.535V94.6936H199.639V90.3395L189.286 84.239C188.565 83.8203 188.198 83.3657 188.198 82.8514V79.1552C188.198 78.7724 188.455 78.4614 188.956 78.2221C189.561 77.9521 190.223 77.825 190.887 77.8513H200.336C200.992 77.8238 201.646 77.951 202.243 78.2221C202.445 78.2899 202.623 78.4145 202.753 78.5805C202.883 78.7464 202.961 78.9463 202.976 79.1552V83.4016H199.639V79.2868H191.535V83.1504L201.949 89.239C202.23 89.3585 202.473 89.5489 202.653 89.7906C202.833 90.0324 202.945 90.3168 202.976 90.6146V94.8371Z" fill="white"/>
<path d="M229.06 87.576C229.06 87.9588 228.803 88.2698 228.302 88.509C227.697 88.7791 227.036 88.9061 226.371 88.8799H217.521V96.1407H214.185V77.851H226.408C227.072 77.8248 227.734 77.9518 228.339 78.2219C228.84 78.4611 229.097 78.7721 229.097 79.1549L229.06 87.576ZM225.723 87.4325V79.2865H217.521V87.4325H225.723Z" fill="white"/>
<path d="M243.066 96.1393H239.729V77.8496H243.066V96.1393Z" fill="white"/>
<path d="M267.513 79.285H261.707V96.1393H258.395V79.285H252.54V77.8496H267.538L267.513 79.285Z" fill="white"/>
<path d="M291.812 96.1393H288.499L287.179 92.0722H279.723L278.403 96.1393H275.188L281.887 77.8496H285.175L291.812 96.1393ZM286.752 90.6368L283.464 80.7205L280.151 90.6368H286.752Z" fill="white"/>
<path d="M313.57 96.1393H301.579V77.8496H304.916V94.6919H313.57V96.1393Z" fill="white"/>
<path d="M326.917 96.1393H323.58V77.8496H326.917V96.1393Z" fill="white"/>
<path d="M351.363 79.285H345.557V96.1393H342.22V79.285H336.365V77.8496H351.363V79.285Z" fill="white"/>
<path d="M375.614 77.9573L371.055 85.3497C370.206 86.5301 369.446 87.7694 368.781 89.0578V96.1393H365.444V89.0578C365.179 88.3959 364.83 87.769 364.406 87.1918L363.183 85.3497L358.624 77.9573V77.8496H362.01L367.168 87.0004L372.277 77.8496H375.639L375.614 77.9573Z" fill="white"/>
<path d="M368.745 19.7099C367.21 19.7115 365.709 19.2672 364.432 18.4335C363.155 17.5997 362.159 16.4139 361.571 15.0261C360.982 13.6383 360.828 12.1109 361.127 10.6372C361.426 9.16355 362.165 7.80985 363.251 6.74745C364.337 5.68505 365.72 4.96171 367.226 4.66897C368.732 4.37623 370.292 4.52725 371.711 5.10293C373.129 5.6786 374.34 6.65305 375.192 7.90294C376.044 9.15283 376.498 10.622 376.497 12.1244C376.495 14.1356 375.677 16.0638 374.224 17.4859C372.771 18.908 370.801 19.7079 368.745 19.7099ZM368.745 5.30601C367.367 5.30447 366.019 5.70306 364.873 6.45135C363.726 7.19964 362.831 8.26399 362.303 9.50976C361.774 10.7555 361.635 12.1267 361.903 13.4499C362.171 14.773 362.834 15.9887 363.808 16.943C364.782 17.8974 366.024 18.5476 367.375 18.8113C368.727 19.075 370.128 18.9404 371.402 18.4246C372.676 17.9087 373.764 17.0348 374.53 15.9134C375.296 14.7919 375.705 13.4733 375.705 12.1244C375.703 10.318 374.969 8.58611 373.665 7.30807C372.36 6.03004 370.591 5.31011 368.745 5.30601Z" fill="white" stroke="white" stroke-width="0.570087"/>
<path d="M366.015 15.7583V8.236H369.28C369.786 8.21541 370.291 8.28387 370.771 8.43811C371.115 8.58298 371.399 8.83651 371.578 9.15813C371.795 9.50815 371.907 9.91091 371.901 10.3203C371.919 10.8189 371.736 11.3046 371.391 11.6719C370.97 12.0794 370.413 12.3259 369.822 12.3666C370.036 12.4651 370.233 12.5927 370.41 12.7456C370.721 13.045 370.994 13.3801 371.223 13.7435L372.514 15.7899H371.287L370.287 14.1983C370.072 13.841 369.837 13.4952 369.584 13.1625C369.449 12.9696 369.283 12.799 369.093 12.6572C368.957 12.5668 368.806 12.4985 368.648 12.4551C368.469 12.4272 368.287 12.4166 368.106 12.4235H366.976V15.7583H366.015ZM366.989 11.5835H369.08C369.434 11.5977 369.788 11.5506 370.126 11.4445C370.363 11.3594 370.565 11.1994 370.7 10.9898C370.829 10.7869 370.896 10.5526 370.894 10.314C370.899 10.1494 370.868 9.98561 370.802 9.83403C370.736 9.68244 370.638 9.54665 370.513 9.43603C370.178 9.16731 369.752 9.032 369.319 9.05707H366.989V11.5835Z" fill="white" stroke="white" stroke-width="0.232354"/>
<path d="M56.3867 7.98828C82.5218 7.98828 103.709 29.6876 103.709 56.4551C103.709 83.2225 82.5217 104.922 56.3867 104.922C30.2519 104.922 9.06552 83.2223 9.06543 56.4551C9.06543 29.6878 30.2518 7.98851 56.3867 7.98828ZM87.3682 26.6221C78.1194 25.1244 54.3968 26.3456 33.4961 43.2119C23.6623 51.069 5.95264 69.6171 19.792 79.1562C23.2353 81.6445 34.671 82.6257 44.5 75.2158C49.8558 71.7825 62.3631 61.7091 69.5459 48.8799C74.069 42.6357 83.7364 29.9118 86.2207 28.9717C91.0811 28.9725 93.9159 44.4561 78.5918 48.8799H73.124C69.5461 48.8799 66.9132 51.2987 73.124 50.6074C91.0454 48.6133 83.2602 74.9805 70.5586 77.3584C64.2803 78.5335 59.6224 78.465 60.5674 74.7324C61.175 73.5573 61.7468 72.7003 65.833 71.6904C67.7904 71.2059 68.33 66.0229 63.335 65.8154C59.9145 65.8846 54.6939 68.6497 55.4365 73.834C55.5267 75.1013 56.5342 77.2582 61.0566 78.373C74.269 81.6299 93.2452 71.9338 89.2578 56.4834C88.0426 53.1655 85.2479 51.2995 80.2793 49.917C82.9571 49.5253 90.6079 47.7737 94.5234 39.6865C95.6711 36.3916 95.847 29.1659 87.3682 26.6221ZM29.2432 50.6074C48.5777 30.2577 73.3038 26.9213 83.25 27.7969C72.3948 35.1516 55.2793 56.8975 48.0781 66.8516C40.4631 78.022 31.2002 81.2992 24.9219 79.502C13.4457 74.6632 22.6048 58.5106 29.2432 50.6074Z" fill="white"/>
<rect x="116.491" y="4.52344" width="3.39294" height="99.5262" fill="white"/>
</svg>
